<svg width="15" height="15" fill="none" xmlns="http://www.w3.org/2000/svg"><path fill-rule="evenodd" clip-rule="evenodd" d="M7.5 1A6.507 6.507 0 001 7.5C1 11.084 3.916 14 7.5 14S14 11.084 14 7.5 11.084 1 7.5 1zm0 12.148A5.654 5.654 0 011.852 7.5 5.654 5.654 0 017.5 1.853 5.654 5.654 0 0113.147 7.5 5.654 5.654 0 017.5 13.148zm-1.472-4.29l3.264-3.72a.38.38 0 01.586 0 .52.52 0 010 .67L6.322 9.86v.001a.39.39 0 01-.294.139.39.39 0 01-.294-.138L4.122 8.024a.52.52 0 010-.67.38.38 0 01.587 0l1.319 1.504z" fill="#53B43B"/><path d="M13.147 7.5h-.25.25zM9.292 5.139l.187.164-.187-.164zM6.028 8.858l-.188.165.188.214.188-.214-.188-.165zm3.85-3.72l-.188.165.188-.164zm0 .67l-.187-.166.187.165zM6.322 9.86l-.188-.165-.01.012-.009.013.207.14zm0 .001l.187.165.01-.011.01-.014-.208-.14zm-.588 0l-.187.165.187-.164zM4.122 8.025l.188-.165-.188.165zm0-.67l-.188-.164.188.165zm.587 0l.187-.164-.187.165zM1.25 7.5A6.257 6.257 0 017.5 1.25v-.5A6.757 6.757 0 00.75 7.5h.5zm6.25 6.25A6.257 6.257 0 011.25 7.5h-.5a6.757 6.757 0 006.75 6.75v-.5zm6.25-6.25a6.257 6.257 0 01-6.25 6.25v.5a6.757 6.757 0 006.75-6.75h-.5zM7.5 1.25a6.257 6.257 0 016.25 6.25h.5A6.757 6.757 0 007.5.75v.5zM1.602 7.5A5.904 5.904 0 007.5 13.398v-.5A5.404 5.404 0 012.102 7.5h-.5zM7.5 1.603A5.904 5.904 0 001.602 7.5h.5A5.404 5.404 0 017.5 2.103v-.5zM13.397 7.5A5.904 5.904 0 007.5 1.603v.5A5.404 5.404 0 0112.897 7.5h.5zM7.5 13.398A5.904 5.904 0 0013.397 7.5h-.5A5.404 5.404 0 017.5 12.898v.5zm1.604-8.424L5.84 8.694l.376.329 3.263-3.72-.375-.33zm.962 0a.63.63 0 00-.963 0l.377.33c.062-.072.148-.072.21 0l.376-.33zm0 .998a.77.77 0 000-.998l-.375.33a.27.27 0 010 .338l.375.33zM6.51 10.025l3.556-4.053-.376-.33-3.556 4.053.376.33zm.019-.024l-.414-.28.413.28zm-.501.249a.64.64 0 00.481-.224l-.376-.33a.14.14 0 01-.105.054v.5zm-.481-.223a.64.64 0 00.48.223v-.5a.14.14 0 01-.105-.053l-.375.33zM3.934 8.189l1.613 1.838.375-.33L4.31 7.859l-.376.33zm0-.999a.77.77 0 000 .999l.376-.33a.271.271 0 010-.34l-.376-.329zm.962 0a.63.63 0 00-.962 0l.376.33c.062-.071.148-.072.21 0l.376-.33zm1.32 1.503L4.896 7.19l-.375.33L5.84 9.023l.376-.33z" fill="#53B43B"/></svg>